<svg>
    <symbol width="100%" height="100%" viewBox="0 0 30 30" xmlns="http://www.w3.org/2000/svg" id="logo-icon">
        <ellipse ry="15" rx="15" cy="15" cx="15" fill="currentColor"/>
        <text xml:space="preserve" text-anchor="start" font-family="Helvetica, Arial, sans-serif" font-size="12" y="19" x="5" fill="#ffffff">skb.</text>
    </symbol>
	<symbol width="100%" height="100%" viewBox="0 0 8 8" xmlns="http://www.w3.org/2000/svg" id="arrow-icon">
		<path d="M8 4L7.295 3.295L4.5 6.085L4.5 0L3.5 0L3.5 6.085L0.71 3.29L0 4L4 8L8 4Z" fill="currentColor"/>
	</symbol>
	<symbol width="100%" height="100%" version="1.1" xmlns="http://www.w3.org/2000/svg" xmlns:xlink="http://www.w3.org/1999/xlink" x="0px" y="0px" viewBox="0 0 512 512" xml:space="preserve" id="tel-icon">
		<path d="M436.992,74.953c-99.989-99.959-262.08-99.935-362.039,0.055s-99.935,262.08,0.055,362.039s262.08,99.935,362.039-0.055c48.006-48.021,74.968-113.146,74.953-181.047C511.986,188.055,485.005,122.951,436.992,74.953z M387.703,356.605c-0.011,0.011-0.022,0.023-0.034,0.034v-0.085l-12.971,12.885c-16.775,16.987-41.206,23.976-64.427,18.432c-23.395-6.262-45.635-16.23-65.877-29.525c-18.806-12.019-36.234-26.069-51.968-41.899c-14.477-14.371-27.483-30.151-38.827-47.104c-12.408-18.242-22.229-38.114-29.184-59.051c-7.973-24.596-1.366-51.585,17.067-69.717l15.189-15.189c4.223-4.242,11.085-4.257,15.326-0.034c0.011,0.011,0.023,0.022,0.034,0.034l47.957,47.957c4.242,4.223,4.257,11.085,0.034,15.326c-0.011,0.011-0.022,0.022-0.034,0.034l-28.16,28.16c-8.08,7.992-9.096,20.692-2.389,29.867c10.185,13.978,21.456,27.131,33.707,39.339c13.659,13.718,28.508,26.197,44.373,37.291c9.167,6.394,21.595,5.316,29.525-2.56l27.221-27.648c4.223-4.242,11.085-4.257,15.326-0.034c0.011,0.011,0.022,0.022,0.034,0.034l48.043,48.128C391.911,345.502,391.926,352.363,387.703,356.605z" fill="currentColor"/>
	</symbol>
	<symbol width="100%" height="100%" viewBox="0 0 448 448" xmlns="http://www.w3.org/2000/svg" id="email-icon">
		<path d="m314.375 144h-180.75l90.375 77.464844zm0 0" fill="currentColor"/>
		<path d="m224 240c-1.910156 0-3.757812-.683594-5.207031-1.929688l-98.792969-84.679687v150.609375h208v-150.609375l-98.792969 84.679687c-1.449219 1.246094-3.296875 1.929688-5.207031 1.929688zm0 0" fill="currentColor"/>
		<path d="m224 0c-123.710938 0-224 100.289062-224 224s100.289062 224 224 224 224-100.289062 224-224c-.140625-123.652344-100.347656-223.859375-224-224zm120 312c0 4.417969-3.582031 8-8 8h-224c-4.417969 0-8-3.582031-8-8v-176c0-4.417969 3.582031-8 8-8h224c4.417969 0 8 3.582031 8 8zm0 0" fill="currentColor"/>
	</symbol>
    <symbol width="100%" height="100%" viewBox="0 0 30 30" fill="none" xmlns="http://www.w3.org/2000/svg" id="fb-icon">
        <path d="M15 0C6.74999 0 0 6.76205 0 15.0904C0 22.6205 5.48999 28.8705 12.66 30V19.4578H8.84999V15.0904H12.66V11.762C12.66 7.98193 14.895 5.90361 18.33 5.90361C19.965 5.90361 21.675 6.18976 21.675 6.18976V9.90964H19.785C17.925 9.90964 17.34 11.0693 17.34 12.259V15.0904H21.51L20.835 19.4578H17.34V30C20.8746 29.4395 24.0933 27.6288 26.4149 24.8947C28.7364 22.1606 30.008 18.6832 30 15.0904C30 6.76205 23.25 0 15 0Z" fill="currentColor"/>
    </symbol>
    <symbol width="100%" height="100%" viewBox="0 0 30 30" fill="none" xmlns="http://www.w3.org/2000/svg" id="vk-icon">
        <path d="M15 0C6.71601 0 0 6.7157 0 15C0 23.2843 6.71601 30 15 30C23.284 30 30 23.2843 30 15C30 6.7157 23.284 0 15 0ZM22.6088 16.6223C23.3079 17.3052 24.0476 17.9478 24.6752 18.7013C24.9532 19.0346 25.2153 19.3792 25.4148 19.7669C25.6996 20.3196 25.4425 20.9257 24.9477 20.9586L21.8747 20.958C21.081 21.0236 20.4494 20.7035 19.9169 20.1609C19.4919 19.7285 19.0975 19.2666 18.6881 18.8194C18.5208 18.6359 18.3447 18.4631 18.1347 18.3272C17.7158 18.0546 17.3518 18.1381 17.1118 18.5758C16.8672 19.0211 16.8114 19.5146 16.788 20.0102C16.7546 20.7348 16.5361 20.9242 15.809 20.9583C14.2554 21.031 12.7814 20.7953 11.4114 20.0121C10.2028 19.3212 9.26731 18.3462 8.45217 17.2423C6.86486 15.0902 5.64921 12.7283 4.55693 10.2985C4.3111 9.7513 4.49095 9.45852 5.09463 9.44716C6.0976 9.42783 7.10056 9.43028 8.10353 9.44624C8.51171 9.45268 8.78179 9.68624 8.93862 10.0714C9.48061 11.4049 10.1451 12.6737 10.9777 13.8503C11.1996 14.1637 11.4261 14.4761 11.7486 14.6974C12.1047 14.9417 12.376 14.861 12.5438 14.4635C12.6513 14.2109 12.6976 13.9409 12.7209 13.6702C12.8007 12.743 12.8102 11.8162 12.6721 10.8927C12.5862 10.3148 12.2612 9.94158 11.6851 9.83233C11.3917 9.77678 11.4347 9.66813 11.5774 9.50056C11.8251 9.21084 12.0571 9.03161 12.5208 9.03161L15.9928 9.031C16.5401 9.13841 16.6628 9.38394 16.7371 9.93514L16.7402 13.7936C16.7337 14.0069 16.8473 14.6391 17.2303 14.7787C17.5372 14.88 17.7397 14.6339 17.9233 14.4396C18.7559 13.556 19.3492 12.5131 19.8804 11.4338C20.1149 10.9577 20.3171 10.4652 20.5136 9.97166C20.6596 9.60675 20.8868 9.42721 21.2986 9.43335L24.642 9.43734C24.7406 9.43734 24.8406 9.43826 24.9382 9.45514C25.5017 9.55151 25.6561 9.79396 25.4817 10.3436C25.2074 11.2073 24.6743 11.9266 24.1531 12.6479C23.5946 13.4201 22.9989 14.1652 22.4458 14.9408C21.9376 15.6497 21.9778 16.0066 22.6088 16.6223Z" fill="currentColor"/>
    </symbol>
	<symbol width="100%" height="100%" viewBox="0 0 512 512" xmlns="http://www.w3.org/2000/svg" id="inst-icon">
		<path d="m305 256c0 27.0625-21.9375 49-49 49s-49-21.9375-49-49 21.9375-49 49-49 49 21.9375 49 49zm0 0" fill="currentColor"/>
		<path d="m370.59375 169.304688c-2.355469-6.382813-6.113281-12.160157-10.996094-16.902344-4.742187-4.882813-10.515625-8.640625-16.902344-10.996094-5.179687-2.011719-12.960937-4.40625-27.292968-5.058594-15.503906-.707031-20.152344-.859375-59.402344-.859375-39.253906 0-43.902344.148438-59.402344.855469-14.332031.65625-22.117187 3.050781-27.292968 5.0625-6.386719 2.355469-12.164063 6.113281-16.902344 10.996094-4.882813 4.742187-8.640625 10.515625-11 16.902344-2.011719 5.179687-4.40625 12.964843-5.058594 27.296874-.707031 15.5-.859375 20.148438-.859375 59.402344 0 39.25.152344 43.898438.859375 59.402344.652344 14.332031 3.046875 22.113281 5.058594 27.292969 2.359375 6.386719 6.113281 12.160156 10.996094 16.902343 4.742187 4.882813 10.515624 8.640626 16.902343 10.996094 5.179688 2.015625 12.964844 4.410156 27.296875 5.0625 15.5.707032 20.144532.855469 59.398438.855469 39.257812 0 43.90625-.148437 59.402344-.855469 14.332031-.652344 22.117187-3.046875 27.296874-5.0625 12.820313-4.945312 22.953126-15.078125 27.898438-27.898437 2.011719-5.179688 4.40625-12.960938 5.0625-27.292969.707031-15.503906.855469-20.152344.855469-59.402344 0-39.253906-.148438-43.902344-.855469-59.402344-.652344-14.332031-3.046875-22.117187-5.0625-27.296874zm-114.59375 162.179687c-41.691406 0-75.488281-33.792969-75.488281-75.484375s33.796875-75.484375 75.488281-75.484375c41.6875 0 75.484375 33.792969 75.484375 75.484375s-33.796875 75.484375-75.484375 75.484375zm78.46875-136.3125c-9.742188 0-17.640625-7.898437-17.640625-17.640625s7.898437-17.640625 17.640625-17.640625 17.640625 7.898437 17.640625 17.640625c-.003906 9.742188-7.898437 17.640625-17.640625 17.640625zm0 0" fill="currentColor"/>
		<path d="m256 0c-141.363281 0-256 114.636719-256 256s114.636719 256 256 256 256-114.636719 256-256-114.636719-256-256-256zm146.113281 316.605469c-.710937 15.648437-3.199219 26.332031-6.832031 35.683593-7.636719 19.746094-23.246094 35.355469-42.992188 42.992188-9.347656 3.632812-20.035156 6.117188-35.679687 6.832031-15.675781.714844-20.683594.886719-60.605469.886719-39.925781 0-44.929687-.171875-60.609375-.886719-15.644531-.714843-26.332031-3.199219-35.679687-6.832031-9.8125-3.691406-18.695313-9.476562-26.039063-16.957031-7.476562-7.339844-13.261719-16.226563-16.953125-26.035157-3.632812-9.347656-6.121094-20.035156-6.832031-35.679687-.722656-15.679687-.890625-20.6875-.890625-60.609375s.167969-44.929688.886719-60.605469c.710937-15.648437 3.195312-26.332031 6.828125-35.683593 3.691406-9.808594 9.480468-18.695313 16.960937-26.035157 7.339844-7.480469 16.226563-13.265625 26.035157-16.957031 9.351562-3.632812 20.035156-6.117188 35.683593-6.832031 15.675781-.714844 20.683594-.886719 60.605469-.886719s44.929688.171875 60.605469.890625c15.648437.710937 26.332031 3.195313 35.683593 6.824219 9.808594 3.691406 18.695313 9.480468 26.039063 16.960937 7.476563 7.34375 13.265625 16.226563 16.953125 26.035157 3.636719 9.351562 6.121094 20.035156 6.835938 35.683593.714843 15.675781.882812 20.683594.882812 60.605469s-.167969 44.929688-.886719 60.605469zm0 0" fill="currentColor"/>
	</symbol>
	<symbol width="100%" height="100%" xmlns="http://www.w3.org/2000/svg" viewBox="0 0 32 32" id="tg-icon">
  		<path d="M16 0.5c-8.563 0-15.5 6.938-15.5 15.5s6.938 15.5 15.5 15.5c8.563 0 15.5-6.938 15.5-15.5s-6.938-15.5-15.5-15.5zM23.613 11.119l-2.544 11.988c-0.188 0.85-0.694 1.056-1.4 0.656l-3.875-2.856-1.869 1.8c-0.206 0.206-0.381 0.381-0.781 0.381l0.275-3.944 7.181-6.488c0.313-0.275-0.069-0.431-0.482-0.156l-8.875 5.587-3.825-1.194c-0.831-0.262-0.85-0.831 0.175-1.231l14.944-5.763c0.694-0.25 1.3 0.169 1.075 1.219z" fill="currentColor"/>
	</symbol>
	<symbol width="100%" height="100%" viewBox="0 0 512 512" xmlns="http://www.w3.org/2000/svg" id="wa-icon">
		<path d="m256 0c-141.363281 0-256 114.636719-256 256s114.636719 256 256 256 256-114.636719 256-256-114.636719-256-256-256zm5.425781 405.050781c-.003906 0 .003907 0 0 0h-.0625c-25.644531-.011719-50.84375-6.441406-73.222656-18.644531l-81.222656 21.300781 21.738281-79.375c-13.410156-23.226562-20.464844-49.578125-20.453125-76.574219.035156-84.453124 68.769531-153.160156 153.222656-153.160156 40.984375.015625 79.457031 15.96875 108.382813 44.917969 28.929687 28.953125 44.851562 67.4375 44.835937 108.363281-.035156 84.457032-68.777343 153.171875-153.21875 153.171875zm0 0" fill="currentColor"/>
		<path d="m261.476562 124.46875c-70.246093 0-127.375 57.105469-127.40625 127.300781-.007812 24.054688 6.726563 47.480469 19.472657 67.75l3.027343 4.816407-12.867187 46.980468 48.199219-12.640625 4.652344 2.757813c19.550781 11.601562 41.964843 17.738281 64.816406 17.746094h.050781c70.191406 0 127.320313-57.109376 127.351563-127.308594.011718-34.019532-13.222657-66.003906-37.265626-90.066406-24.042968-24.0625-56.019531-37.324219-90.03125-37.335938zm74.90625 182.035156c-3.191406 8.9375-18.484374 17.097656-25.839843 18.199219-6.597657.984375-14.941407 1.394531-24.113281-1.515625-5.5625-1.765625-12.691407-4.121094-21.828126-8.0625-38.402343-16.578125-63.484374-55.234375-65.398437-57.789062-1.914063-2.554688-15.632813-20.753907-15.632813-39.59375 0-18.835938 9.890626-28.097657 13.398438-31.925782 3.511719-3.832031 7.660156-4.789062 10.210938-4.789062 2.550781 0 5.105468.023437 7.335937.132812 2.351563.117188 5.507813-.894531 8.613281 6.570313 3.191406 7.664062 10.847656 26.5 11.804688 28.414062.957031 1.917969 1.59375 4.152344.320312 6.707031-1.277344 2.554688-5.519531 8.066407-9.570312 13.089844-1.699219 2.105469-3.914063 3.980469-1.679688 7.8125 2.230469 3.828125 9.917969 16.363282 21.296875 26.511719 14.625 13.039063 26.960938 17.078125 30.789063 18.996094 3.824218 1.914062 6.058594 1.59375 8.292968-.957031 2.230469-2.554688 9.570313-11.175782 12.121094-15.007813 2.550782-3.832031 5.105469-3.191406 8.613282-1.914063 3.511718 1.273438 22.332031 10.535157 26.160156 12.449219 3.828125 1.917969 6.378906 2.875 7.335937 4.472657.960938 1.597656.960938 9.257812-2.230469 18.199218zm0 0" fill="currentColor"/>
	</symbol>
	<symbol width="100%" height="100%" version="1.1" xmlns="http://www.w3.org/2000/svg" xmlns:xlink="http://www.w3.org/1999/xlink" x="0px" y="0px" viewBox="0 0 45.532 45.532" xml:space="preserve" id="any-icon">
		<path d="M22.766,0.001C10.194,0.001,0,10.193,0,22.766s10.193,22.765,22.766,22.765c12.574,0,22.766-10.192,22.766-22.765S35.34,0.001,22.766,0.001z M22.766,6.808c4.16,0,7.531,3.372,7.531,7.53c0,4.159-3.371,7.53-7.531,7.53c-4.158,0-7.529-3.371-7.529-7.53C15.237,10.18,18.608,6.808,22.766,6.808z M22.761,39.579c-4.149,0-7.949-1.511-10.88-4.012c-0.714-0.609-1.126-1.502-1.126-2.439c0-4.217,3.413-7.592,7.631-7.592h8.762c4.219,0,7.619,3.375,7.619,7.592c0,0.938-0.41,1.829-1.125,2.438C30.712,38.068,26.911,39.579,22.761,39.579z" fill="currentColor"/>
	</symbol>
    <symbol width="100%" height="100%" version="1.1" xmlns="http://www.w3.org/2000/svg" xmlns:xlink="http://www.w3.org/1999/xlink" x="0px" y="0px" viewBox="0 0 512 512" xml:space="preserve" id="edit-icon">
		<polygon points="85.333,282.64 85.333,362.64 165.333,362.64 378.667,149.307 298.667,69.307" fill="currentColor"/>
		<path d="M441.707,56.08L391.893,6.267c-8.32-8.32-21.867-8.32-30.187,0L320,47.973l80,80l41.707-41.707C450.027,77.947,450.027,64.4,441.707,56.08z" fill="currentColor"/>
    </symbol>
    <symbol width="100%" height="100%" version="1.1" xmlns="http://www.w3.org/2000/svg" xmlns:xlink="http://www.w3.org/1999/xlink" x="0px" y="0px" viewBox="0 0 511.995 511.995" xml:space="preserve" id="delete-icon">
		<path d="M437.126,74.939c-99.826-99.826-262.307-99.826-362.133,0C26.637,123.314,0,187.617,0,256.005s26.637,132.691,74.993,181.047c49.923,49.923,115.495,74.874,181.066,74.874s131.144-24.951,181.066-74.874C536.951,337.226,536.951,174.784,437.126,74.939z M409.08,409.006c-84.375,84.375-221.667,84.375-306.042,0c-40.858-40.858-63.37-95.204-63.37-153.001s22.512-112.143,63.37-153.021c84.375-84.375,221.667-84.355,306.042,0C493.435,187.359,493.435,324.651,409.08,409.006z" fill="currentColor"/>
		<path d="M341.525,310.827l-56.151-56.071l56.151-56.071c7.735-7.735,7.735-20.29,0.02-28.046c-7.755-7.775-20.31-7.755-28.065-0.02l-56.19,56.111l-56.19-56.111c-7.755-7.735-20.31-7.755-28.065,0.02c-7.735,7.755-7.735,20.31,0.02,28.046l56.151,56.071l-56.151,56.071c-7.755,7.735-7.755,20.29-0.02,28.046c3.868,3.887,8.965,5.811,14.043,5.811s10.155-1.944,14.023-5.792l56.19-56.111l56.19,56.111c3.868,3.868,8.945,5.792,14.023,5.792c5.078,0,10.175-1.944,14.043-5.811C349.28,331.117,349.28,318.562,341.525,310.827z" fill="currentColor"/>
    </symbol>
    <symbol width="100%" height="100%" version="1.1" xmlns="http://www.w3.org/2000/svg" xmlns:xlink="http://www.w3.org/1999/xlink" x="0px" y="0px" viewBox="0 0 469.333 469.333" xml:space="preserve" id="user-icon">
		<path d="M298.667,277.333c-56.853,0-170.667,28.48-170.667,85.333v42.667h341.333v-42.667C469.333,305.813,355.52,277.333,298.667,277.333z" fill="currentColor"/>
		<path d="M298.667,234.667c47.147,0,85.333-38.293,85.333-85.333C384,102.187,345.813,64,298.667,64s-85.333,38.187-85.333,85.333C213.333,196.373,251.52,234.667,298.667,234.667z" fill="currentColor"/>
		<polygon points="170.667,192 106.667,192 106.667,128 64,128 64,192 0,192 0,234.667 64,234.667 64,298.667 106.667,298.667 106.667,234.667 170.667,234.667" fill="currentColor"/>
    </symbol>
	<symbol width="100%" height="100%" version="1.1" xmlns="http://www.w3.org/2000/svg" xmlns:xlink="http://www.w3.org/1999/xlink" x="0px" y="0px" viewBox="0 0 511.995 511.995" xml:space="preserve" id="close-icon">
	    <path d="m194.800781 164.769531 128.210938-128.214843c8.34375-8.339844 8.34375-21.824219 0-30.164063-8.339844-8.339844-21.824219-8.339844-30.164063 0l-128.214844 128.214844-128.210937-128.214844c-8.34375-8.339844-21.824219-8.339844-30.164063 0-8.34375 8.339844-8.34375 21.824219 0 30.164063l128.210938 128.214843-128.210938 128.214844c-8.34375 8.339844-8.34375 21.824219 0 30.164063 4.15625 4.160156 9.621094 6.25 15.082032 6.25 5.460937 0 10.921875-2.089844 15.082031-6.25l128.210937-128.214844 128.214844 128.214844c4.160156 4.160156 9.621094 6.25 15.082032 6.25 5.460937 0 10.921874-2.089844 15.082031-6.25 8.34375-8.339844 8.34375-21.824219 0-30.164063zm0 0" fill="currentColor"/>
    </symbol>
	<symbol width="100%" height="100%" version="1.1" xmlns="http://www.w3.org/2000/svg" xmlns:xlink="http://www.w3.org/1999/xlink" x="0px" y="0px" viewBox="0 0 512 512" xml:space="preserve" id="add-icon">
		<path d="M256,0C114.833,0,0,114.833,0,256s114.833,256,256,256s256-114.853,256-256S397.167,0,256,0z M256,472.341c-119.275,0-216.341-97.046-216.341-216.341S136.725,39.659,256,39.659S472.341,136.705,472.341,256S375.295,472.341,256,472.341z" fill="currentColor"/>
		<path d="M355.148,234.386H275.83v-79.318c0-10.946-8.864-19.83-19.83-19.83s-19.83,8.884-19.83,19.83v79.318h-79.318c-10.966,0-19.83,8.884-19.83,19.83s8.864,19.83,19.83,19.83h79.318v79.318c0,10.946,8.864,19.83,19.83,19.83s19.83-8.884,19.83-19.83v-79.318h79.318c10.966,0,19.83-8.884,19.83-19.83S366.114,234.386,355.148,234.386z" fill="currentColor"/>
	</symbol>
</svg>